<?xml version="1.0" standalone="no"?>
<!DOCTYPE svg PUBLIC "-//W3C//DTD SVG 20010904//EN"
 "http://www.w3.org/TR/2001/REC-SVG-20010904/DTD/svg10.dtd">
<svg version="1.0" xmlns="http://www.w3.org/2000/svg"
 width="1024.000000pt" height="1024.000000pt" viewBox="0 0 1024.000000 1024.000000"
 preserveAspectRatio="xMidYMid meet">

<g transform="translate(0.000000,1024.000000) scale(0.100000,-0.100000)"
fill="#000000" stroke="none">
<path d="M3165 9636 c-121 -39 -225 -119 -270 -207 -35 -69 -136 -396 -142
-461 -8 -80 12 -169 57 -264 88 -183 279 -299 490 -297 155 1 221 45 296 198
24 50 44 97 44 103 0 9 10 11 33 7 l32 -6 82 208 c45 114 84 214 85 222 2 8
-10 17 -28 22 l-31 9 -5 87 c-8 125 -34 188 -106 255 -146 134 -356 183 -537
124z m404 -501 c113 -31 206 -57 207 -58 7 -7 -131 -305 -138 -300 -5 3 -98
31 -206 62 -140 40 -198 61 -200 72 -1 8 20 75 49 147 37 94 56 132 68 132 9
0 108 -25 220 -55z"/>
<path d="M3340 9035 c-18 -47 -31 -87 -28 -90 7 -7 280 -87 301 -89 14 -1 27
19 54 83 19 46 31 87 26 91 -7 6 -301 90 -315 90 -3 0 -20 -38 -38 -85z"/>
<path d="M6799 9485 c-299 -49 -532 -169 -741 -382 -176 -180 -288 -392 -344
-654 -25 -115 -25 -369 -1 -491 51 -254 163 -472 336 -651 186 -193 398 -315
655 -375 96 -22 134 -26 276 -26 178 -1 273 13 417 60 300 97 578 328 731 606
239 434 209 985 -74 1379 -75 104 -228 251 -335 322 -146 97 -323 169 -491
202 -117 23 -323 28 -429 10z m359 -306 c316 -46 625 -290 751 -593 55 -131
74 -234 74 -386 -1 -168 -29 -287 -103 -435 -217 -438 -706 -657 -1165 -523
-173 50 -315 138 -443 274 -429 454 -352 1165 163 1509 217 145 447 194 723
154z"/>
<path d="M6801 9115 c-102 -23 -160 -44 -248 -90 -463 -243 -633 -798 -388
-1262 128 -243 327 -400 601 -475 113 -30 335 -31 447 0 99 27 232 89 311 146
139 99 276 276 340 438 83 210 79 478 -9 688 -107 255 -343 463 -615 541 -98
28 -342 36 -439 14z m40 -162 c6 -16 18 -64 26 -108 52 -274 -92 -437 -324
-366 -69 21 -208 96 -233 125 -18 22 -3 49 73 132 99 108 236 193 367 228 76
20 79 20 91 -11z m416 2 c144 -45 309 -168 395 -293 38 -55 35 -61 -51 -113
-125 -76 -254 -106 -336 -79 -51 17 -114 76 -137 127 -36 81 -31 247 11 356
13 33 20 33 118 2z m-227 -445 c11 -11 20 -29 20 -40 0 -11 -9 -29 -20 -40
-11 -11 -29 -20 -40 -20 -11 0 -29 9 -40 20 -11 11 -20 29 -20 40 0 11 9 29
20 40 11 11 29 20 40 20 11 0 29 -9 40 -20z m-248 -187 c37 -34 12 -93 -39
-93 -30 0 -63 26 -63 49 0 51 64 79 102 44z m279 2 c97 -51 89 -199 -13 -240
-76 -30 -157 8 -178 84 -30 113 88 209 191 156z m220 5 c13 -7 19 -21 19 -43
0 -41 -15 -57 -55 -57 -38 0 -55 16 -55 51 0 49 45 73 91 49z m-889 -65 c177
-37 262 -118 262 -250 0 -67 -14 -100 -77 -183 -42 -55 -169 -162 -192 -162
-18 0 -105 139 -138 220 -15 36 -33 91 -41 122 -18 71 -31 209 -22 242 6 25
10 26 74 26 37 0 97 -7 134 -15z m1404 -11 c9 -35 -3 -163 -22 -244 -20 -82
-102 -252 -147 -305 l-35 -39 -40 27 c-63 44 -180 171 -202 218 -41 91 -17
216 54 275 65 55 189 92 313 93 70 1 73 0 79 -25z m-910 -229 c27 -27 26 -59
-4 -82 -55 -43 -123 37 -75 89 22 25 49 23 79 -7z m292 9 c12 -8 22 -26 22
-40 0 -29 -32 -64 -60 -64 -11 0 -29 9 -40 20 -11 11 -20 29 -20 40 0 25 34
60 58 60 10 0 28 -7 40 -16z m-139 -205 c101 -23 191 -126 247 -283 33 -94 34
-93 -87 -126 -156 -42 -359 -34 -483 20 -54 23 -54 25 -5 145 52 125 138 217
226 241 59 16 50 15 102 3z"/>
<path d="M2560 8795 c-245 -47 -367 -116 -451 -257 -65 -108 -172 -354 -215
-495 -45 -147 -57 -299 -30 -379 19 -58 82 -125 139 -149 45 -19 210 -45 284
-45 49 0 54 -2 101 -51 l49 -52 345 107 c190 58 351 106 358 106 7 0 39 -22
69 -48 78 -68 95 -76 129 -60 17 8 31 26 37 46 7 24 13 31 25 26 41 -18 60
-15 85 11 23 22 26 32 21 61 -7 34 6 48 18 19 8 -23 44 -18 72 11 20 20 25 33
22 60 -4 38 -3 40 18 20 11 -12 20 -12 44 -3 40 15 45 37 22 89 -28 61 -188
247 -220 255 -34 8 -92 -8 -232 -64 l-115 -47 -260 33 c-237 30 -274 32 -415
26 -86 -4 -151 -4 -147 1 5 5 34 22 65 39 l57 30 35 105 c20 58 39 112 43 120
4 8 5 -38 3 -102 l-3 -118 47 0 c25 0 134 -11 241 -26 107 -14 223 -29 259
-33 60 -8 71 -6 145 24 117 48 233 85 265 85 15 0 43 -11 63 -24 l36 -25 7 34
c12 66 -18 155 -74 216 -23 26 -24 27 -75 13 -161 -43 -385 12 -529 129 -72
59 -148 172 -177 265 -13 40 -26 72 -30 71 -3 0 -62 -11 -131 -24z"/>
<path d="M4039 8647 c-18 -12 -40 -35 -49 -50 -15 -26 -14 -27 52 -94 l67 -68
-97 -86 c-53 -47 -161 -142 -238 -211 l-142 -125 48 -54 48 -54 44 41 c23 22
128 123 233 223 l189 182 141 -139 c131 -130 195 -184 195 -164 0 5 -7 31 -15
58 -11 38 -30 64 -84 118 -67 66 -68 69 -55 95 8 14 14 32 14 40 0 16 -291
311 -306 311 -6 0 -26 -10 -45 -23z"/>
<path d="M4817 8503 c-3 -5 -37 -86 -76 -182 -66 -159 -72 -179 -69 -235 l3
-61 45 74 c41 69 47 87 75 243 17 92 30 168 29 168 -2 0 -5 -3 -7 -7z"/>
<path d="M4535 8375 c3 -28 10 -96 15 -153 13 -133 52 -217 63 -134 3 25 -8
84 -34 181 -22 79 -42 147 -45 150 -3 3 -3 -17 1 -44z"/>
<path d="M4908 8186 c-71 -53 -118 -97 -137 -129 -17 -26 -27 -47 -23 -47 28
0 103 35 124 58 43 47 159 202 151 201 -4 -1 -56 -38 -115 -83z"/>
<path d="M4280 8026 c84 -43 119 -55 173 -61 37 -3 67 -4 67 -2 0 3 -18 20
-41 38 -30 24 -66 38 -137 56 -54 12 -113 23 -132 23 -31 0 -23 -6 70 -54z"/>
<path d="M4825 7975 l-39 -19 41 -12 c36 -11 59 -9 164 12 68 13 128 25 133
28 6 2 -50 5 -124 7 -119 4 -140 2 -175 -16z"/>
<path d="M4448 7882 l-38 -3 0 -65 c0 -57 -2 -64 -20 -64 -18 0 -20 7 -20 60
l0 60 -190 0 -191 0 3 -82 3 -83 100 -35 c123 -43 180 -72 224 -113 37 -35 70
-99 71 -136 1 -89 -75 -181 -202 -246 l-78 -40 0 -82 0 -83 303 0 c166 0 420
-3 565 -7 l262 -6 0 89 0 89 -53 27 c-78 41 -161 111 -180 151 -21 43 -22 99
-2 136 34 67 190 164 347 217 l78 26 0 93 0 93 -302 7 c-276 6 -585 5 -680 -3z"/>
<path d="M2780 7405 c-184 -58 -342 -105 -350 -105 -9 0 -40 25 -70 55 l-54
55 -66 0 c-36 1 -85 5 -110 10 -25 4 -47 7 -48 5 -3 -3 -61 -314 -77 -412 l-7
-43 689 0 688 0 29 223 c15 122 30 235 33 250 l6 29 -47 -36 c-34 -25 -58 -36
-82 -36 -43 0 -65 11 -130 67 -28 23 -55 43 -60 42 -5 0 -160 -47 -344 -104z"/>
<path d="M4615 6665 c-191 -42 -347 -178 -406 -353 -28 -82 -30 -215 -6 -310
20 -74 72 -189 115 -252 l31 -44 -67 -36 c-96 -51 -158 -95 -227 -165 -143
-143 -215 -305 -215 -485 0 -159 50 -279 161 -392 78 -77 192 -139 310 -165
111 -25 339 -22 444 6 102 27 208 79 292 143 l66 51 31 -39 c17 -21 55 -65 86
-97 l55 -58 176 -6 c187 -6 255 1 356 39 l53 19 0 98 0 98 -76 6 c-102 9 -161
42 -232 129 -30 36 -68 88 -83 115 l-28 48 60 103 c66 115 175 326 213 414 28
64 59 89 144 114 l52 15 0 85 0 84 -290 0 -290 0 0 -82 0 -83 51 -22 c49 -22
50 -23 44 -55 -17 -78 -123 -309 -159 -346 -11 -11 -40 23 -166 195 -85 114
-170 228 -189 252 -22 27 -31 46 -24 48 38 13 148 96 209 158 157 159 201 354
120 531 -31 67 -115 153 -185 189 -120 60 -290 80 -426 50z m210 -238 c61 -34
88 -93 89 -186 1 -68 -3 -84 -37 -151 -40 -80 -113 -174 -128 -164 -16 10 -81
116 -112 184 -42 91 -48 196 -15 259 41 78 125 102 203 58z m-278 -1014 c316
-431 384 -527 379 -539 -9 -24 -89 -74 -144 -90 -76 -22 -199 -15 -269 16
-222 96 -261 497 -65 647 24 18 45 33 47 33 1 0 25 -30 52 -67z"/>
<path d="M6100 6587 l0 -84 67 -34 c110 -56 101 21 107 -904 5 -631 4 -807 -6
-834 -17 -44 -57 -73 -110 -80 l-43 -6 -3 -93 -3 -94 598 5 c503 3 615 7 703
21 466 77 752 359 826 816 21 129 18 403 -6 542 -83 485 -371 757 -865 817
-56 7 -312 11 -677 11 l-588 0 0 -83z m1101 -191 c245 -44 388 -213 454 -536
22 -105 31 -410 16 -537 -39 -331 -168 -515 -406 -578 -39 -11 -125 -18 -242
-22 l-183 -6 0 847 0 846 143 0 c78 -1 176 -7 218 -14z"/>
<path d="M2020 6577 l0 -83 55 -23 c30 -13 66 -36 80 -53 l26 -30 -3 -833 -3
-834 -30 -31 c-16 -17 -50 -37 -75 -44 l-45 -13 0 -84 0 -84 458 -3 457 -2 0
89 0 88 -41 7 c-59 9 -117 42 -139 79 -19 30 -20 49 -18 362 l3 330 160 -1
c240 -2 290 -23 319 -136 9 -35 17 -76 18 -93 l3 -30 98 -3 97 -3 0 385 0 386
-94 0 -93 0 -6 -41 c-8 -59 -52 -141 -89 -166 -50 -33 -109 -42 -270 -43
l-148 0 0 359 0 358 46 7 c71 9 361 7 437 -4 37 -6 85 -19 105 -29 70 -36 130
-115 161 -213 l13 -38 94 0 94 0 0 275 0 275 -835 0 -835 0 0 -83z"/>
<path d="M3000 4095 c-4 -5 -40 -131 -80 -280 -40 -148 -75 -278 -78 -288 -4
-16 2 -18 59 -15 l63 3 14 63 14 63 76 -3 77 -3 16 -60 16 -60 62 -3 c56 -3
62 -1 57 15 -3 10 -37 142 -76 293 -39 151 -73 276 -75 278 -9 9 -137 6 -145
-3z m98 -243 c12 -53 22 -103 22 -110 0 -8 -17 -12 -50 -12 -39 0 -50 4 -50
16 0 27 43 204 50 204 3 0 16 -44 28 -98z"/>
<path d="M3374 4101 c-2 -2 -4 -136 -4 -298 l0 -293 55 0 55 0 2 193 3 192 76
-190 77 -190 68 0 69 0 0 294 0 293 -52 2 -53 1 -2 -195 -3 -195 -69 170 c-96
237 -81 217 -155 219 -35 0 -65 -1 -67 -3z"/>
<path d="M3975 4096 c-78 -34 -105 -108 -105 -286 0 -168 25 -245 91 -281 34
-18 107 -26 160 -18 62 10 114 53 129 109 19 67 17 70 -50 70 -56 0 -60 -2
-60 -23 0 -38 -22 -59 -63 -60 -26 -1 -44 6 -60 21 -20 21 -22 34 -26 159 -5
198 10 231 95 221 22 -2 33 -12 47 -40 17 -35 22 -38 60 -38 63 0 73 10 59 58
-26 85 -82 122 -184 122 -34 -1 -77 -7 -93 -14z"/>
<path d="M4435 4087 c-68 -37 -89 -95 -93 -253 -6 -208 27 -289 133 -320 44
-12 65 -13 112 -5 69 13 102 35 127 85 36 73 44 276 15 388 -12 47 -54 97 -96
114 -52 22 -151 18 -198 -9z m158 -95 c41 -45 50 -281 14 -349 -16 -30 -22
-33 -62 -33 -36 0 -48 5 -60 24 -37 56 -37 315 -1 355 24 27 86 29 109 3z"/>
<path d="M5125 4100 c-55 -23 -92 -94 -81 -155 4 -18 18 -50 32 -71 18 -26 22
-40 14 -42 -25 -9 -78 -63 -90 -92 -29 -71 10 -179 78 -214 69 -36 186 -24
236 23 l22 21 40 -30 c50 -38 67 -37 95 1 l22 32 -22 18 c-12 10 -33 26 -47
36 l-24 18 20 41 c17 33 43 144 36 150 0 1 -21 4 -46 5 l-45 4 -12 -49 c-7
-27 -16 -53 -21 -58 -5 -5 -27 11 -52 38 -41 44 -42 48 -25 58 77 43 109 117
84 190 -20 58 -66 86 -138 85 -31 0 -65 -4 -76 -9z m103 -82 c22 -22 14 -82
-13 -108 -14 -13 -26 -22 -28 -19 -24 30 -37 59 -37 84 0 36 15 55 45 55 12 0
26 -5 33 -12z m-18 -323 c50 -60 50 -60 29 -77 -46 -38 -111 -13 -128 49 -10
36 -1 69 23 85 17 12 22 8 76 -57z"/>
<path d="M5744 4095 c-3 -6 -3 -138 -2 -295 l3 -285 90 -3 c213 -8 281 46 300
238 9 86 -9 213 -38 264 -37 66 -72 80 -221 86 -82 3 -130 1 -132 -5z m242
-120 c43 -65 41 -293 -2 -336 -11 -10 -42 -21 -71 -25 l-53 -7 0 197 0 196 55
0 c47 0 57 -3 71 -25z"/>
<path d="M6654 4101 c-2 -2 -4 -136 -4 -298 l0 -293 55 0 55 0 0 193 0 192 61
-145 c33 -80 68 -165 79 -190 l18 -45 66 -3 66 -3 0 295 0 294 -51 4 c-31 2
-53 -1 -56 -8 -2 -6 -3 -90 -1 -187 2 -98 1 -177 -2 -177 -3 0 -39 84 -80 187
l-75 187 -63 0 c-35 1 -66 -1 -68 -3z"/>
<path d="M7454 4095 c-2 -5 -5 -91 -6 -190 l-3 -179 -74 187 -74 187 -69 0
-68 0 0 -296 0 -295 53 3 52 3 0 188 c0 172 4 215 18 170 3 -10 36 -94 75
-188 l70 -170 66 -3 66 -3 0 295 0 294 -51 4 c-29 1 -53 -1 -55 -7z"/>
<path d="M7723 4102 l-53 -3 0 -295 0 -295 58 3 57 3 3 289 c1 159 -1 292 -5
295 -5 3 -32 5 -60 3z"/>
<path d="M7961 4091 c-92 -49 -109 -195 -30 -268 13 -12 60 -38 103 -58 85
-39 105 -56 106 -93 0 -38 -18 -61 -54 -68 -49 -9 -88 13 -98 55 -9 33 -9 33
-56 26 -26 -4 -50 -10 -54 -14 -11 -10 9 -75 33 -105 42 -53 119 -74 207 -55
99 20 154 104 133 200 -15 65 -39 90 -137 139 -100 51 -125 80 -108 127 20 59
108 54 121 -8 6 -31 6 -31 57 -24 28 3 52 8 54 10 2 1 -1 21 -7 42 -12 43 -51
86 -94 102 -44 17 -137 13 -176 -8z"/>
<path d="M1990 3805 l0 -295 60 0 60 0 0 125 0 125 91 0 90 0 -3 48 -3 47 -88
0 -87 0 0 72 0 72 102 3 102 3 0 45 1 45 -162 3 -163 2 0 -295z"/>
<path d="M2400 3805 l0 -296 58 3 57 3 3 118 c3 115 3 117 26 117 19 0 28 -15
66 -107 24 -60 48 -114 53 -120 6 -8 33 -13 69 -13 68 0 68 0 22 92 -13 26
-35 72 -48 102 l-25 55 34 21 c97 60 82 244 -25 298 -39 19 -60 22 -167 22
l-123 0 0 -295z m243 174 c24 -29 22 -94 -3 -119 -15 -15 -33 -20 -70 -20
l-50 0 0 78 c0 43 3 82 8 86 14 15 96 -3 115 -25z"/>
<path d="M6230 3805 l0 -295 163 2 162 3 3 48 3 47 -105 0 -106 0 0 80 0 80
86 0 85 0 -3 43 -3 42 -82 3 -83 3 0 72 0 72 100 -3 100 -4 0 51 0 51 -160 0
-160 0 0 -295z"/>
<path d="M2960 3227 c-54 -19 -74 -63 -78 -178 -5 -121 16 -181 72 -204 78
-33 164 -6 192 60 21 51 19 220 -4 265 -30 61 -104 84 -182 57z m107 -87 c16
-33 16 -178 0 -210 -10 -19 -20 -25 -47 -25 -32 0 -36 4 -48 40 -16 48 -10
188 9 211 19 23 71 14 86 -16z"/>
<path d="M5730 3223 c-58 -30 -71 -69 -68 -205 3 -117 3 -118 35 -149 60 -60
181 -48 220 23 14 26 18 55 18 138 0 148 -28 193 -126 205 -32 5 -54 1 -79
-12z m103 -67 c27 -28 31 -188 5 -238 -5 -11 -20 -18 -38 -18 -47 0 -60 30
-60 135 0 66 4 97 16 113 17 25 56 29 77 8z"/>
<path d="M7976 3230 c-48 -15 -74 -48 -87 -109 -14 -70 -5 -193 18 -232 47
-79 196 -78 240 3 14 26 18 56 18 138 0 113 -13 155 -58 184 -29 20 -95 27
-131 16z m91 -87 c14 -21 18 -46 17 -113 -1 -102 -13 -130 -54 -130 -47 0 -60
30 -60 139 0 74 4 98 17 113 24 27 59 23 80 -9z"/>
<path d="M1990 3035 l0 -195 110 0 110 0 0 30 c0 29 0 29 -67 32 l-68 3 -3
163 -2 162 -40 0 -40 0 0 -195z"/>
<path d="M2355 3218 c-9 -28 -95 -360 -95 -369 0 -5 17 -9 39 -9 37 0 39 1 50
45 l11 45 50 0 49 0 8 -42 c8 -42 10 -43 52 -46 51 -4 52 -29 -13 220 l-43
163 -51 3 c-36 2 -54 -1 -57 -10z m68 -125 c4 -21 9 -53 13 -70 6 -32 5 -33
-25 -33 -19 0 -31 5 -31 13 0 29 23 127 30 127 4 0 10 -17 13 -37z"/>
<path d="M2560 3220 c0 -6 17 -82 39 -168 21 -86 42 -169 45 -184 6 -26 10
-28 60 -28 l53 0 47 188 c25 103 46 191 46 195 0 4 -17 7 -38 7 l-38 0 -33
-142 c-20 -84 -36 -136 -40 -127 -5 8 -21 71 -37 142 l-28 127 -38 0 c-21 0
-38 -5 -38 -10z"/>
<path d="M3230 3035 l0 -195 43 0 44 0 -5 75 c-4 70 -3 75 16 75 15 0 27 -17
53 -75 l33 -75 43 0 c24 0 43 2 43 4 0 2 -16 38 -36 79 l-35 74 30 31 c27 26
31 38 31 82 0 97 -33 120 -170 120 l-90 0 0 -195z m148 129 c25 -7 37 -41 28
-79 -6 -22 -12 -25 -51 -25 l-45 0 0 48 c0 64 9 71 68 56z"/>
<path d="M3560 3035 l0 -195 40 0 40 0 0 195 0 195 -40 0 -40 0 0 -195z"/>
<path d="M3840 3036 l0 -196 90 0 c152 0 180 30 180 190 0 97 -13 142 -50 175
-18 17 -39 21 -121 23 l-99 4 0 -196z m160 116 c20 -16 24 -31 28 -100 7 -119
-18 -163 -85 -150 -16 3 -18 16 -21 123 -1 65 0 125 2 132 8 19 50 16 76 -5z"/>
<path d="M4180 3035 l0 -195 40 0 40 0 0 195 0 195 -40 0 -40 0 0 -195z"/>
<path d="M4470 3035 l0 -195 40 0 40 0 0 80 0 80 60 0 60 0 0 35 0 35 -60 0
-60 0 0 50 0 50 70 0 70 0 0 30 0 30 -110 0 -110 0 0 -195z"/>
<path d="M4740 3035 l0 -195 116 0 115 0 -3 28 c-3 26 -5 27 -76 30 l-73 3 3
52 3 52 58 3 c56 3 57 4 57 32 0 30 0 30 -60 30 l-60 0 0 50 0 49 73 3 c69 3
72 4 72 28 l0 25 -113 3 -112 3 0 -196z"/>
<path d="M5020 3035 l0 -195 45 0 45 0 0 76 c0 65 2 75 17 72 10 -2 29 -32 47
-76 l30 -72 43 0 c24 0 43 2 43 4 0 2 -16 38 -36 80 l-36 76 30 25 c35 29 46
73 32 127 -17 61 -54 78 -167 78 l-93 0 0 -195z m164 122 c13 -9 17 -23 14
-52 -3 -39 -4 -40 -44 -43 l-42 -3 -3 51 c-2 29 -2 54 0 56 9 9 58 3 75 -9z"/>
<path d="M5350 3036 l0 -196 40 0 40 0 0 75 c0 67 2 75 19 75 13 0 27 -20 51
-75 l33 -75 43 0 c24 0 44 2 44 5 0 2 -16 38 -36 78 l-36 73 31 31 c27 27 31
39 31 82 0 42 -5 56 -29 83 -29 33 -31 33 -130 36 l-101 4 0 -196z m158 118
c24 -17 30 -62 10 -82 -7 -7 -29 -12 -50 -12 l-38 0 0 48 c0 27 3 52 7 55 11
12 48 7 71 -9z"/>
<path d="M6120 3036 l0 -196 89 0 c48 0 102 5 120 11 61 22 81 113 36 167 -22
26 -23 31 -10 42 25 21 20 104 -9 137 -23 27 -29 28 -125 31 l-101 4 0 -196z
m151 124 c22 -12 26 -59 7 -78 -7 -7 -27 -12 -45 -12 -32 0 -33 1 -33 43 0 24
3 47 7 50 10 10 42 8 64 -3z m19 -170 c11 -11 20 -27 20 -35 0 -27 -38 -55
-75 -55 l-35 0 0 55 0 55 35 0 c22 0 43 -8 55 -20z"/>
<path d="M6501 3193 c-5 -21 -26 -101 -46 -178 -20 -77 -39 -148 -42 -158 -4
-16 1 -18 39 -15 42 3 43 4 52 46 l9 42 48 0 49 0 12 -45 c12 -44 13 -45 53
-45 l42 0 -51 193 -51 192 -52 3 -52 3 -10 -38z m79 -120 c7 -32 15 -64 17
-70 4 -9 -6 -13 -32 -13 -37 0 -37 0 -31 33 4 17 9 49 13 70 3 20 9 37 13 37
4 0 13 -26 20 -57z"/>
<path d="M6700 3200 c0 -29 2 -30 45 -30 l45 0 0 -165 0 -165 40 0 40 0 0 165
0 165 45 0 c43 0 45 1 45 30 l0 30 -130 0 -130 0 0 -30z"/>
<path d="M6990 3200 c0 -29 2 -30 45 -30 l45 0 0 -165 0 -165 40 0 40 0 0 165
0 165 45 0 c43 0 45 1 45 30 l0 30 -130 0 -130 0 0 -30z"/>
<path d="M7292 3060 l3 -170 28 -27 c25 -25 34 -28 98 -28 67 0 72 2 100 33
l29 32 0 165 0 165 -40 0 -40 0 0 -153 c0 -106 -4 -157 -12 -165 -19 -19 -66
-15 -78 7 -5 11 -10 84 -10 165 l0 146 -41 0 -40 0 3 -170z"/>
<path d="M7600 3200 c0 -29 2 -30 45 -30 l45 0 0 -165 0 -165 45 0 46 0 -2
163 -1 162 41 3 c38 3 41 5 41 33 l0 29 -130 0 -130 0 0 -30z"/>
<path d="M8205 2898 c-3 -7 -6 -40 -7 -73 -3 -57 -2 -60 21 -60 20 0 27 9 42
55 27 82 25 90 -16 90 -20 0 -38 -6 -40 -12z"/>
<path d="M4320 2623 c-54 -28 -73 -77 -73 -187 0 -149 34 -199 138 -199 106 0
140 48 138 199 -1 144 -28 187 -124 199 -32 5 -54 1 -79 -12z m104 -75 c23
-32 22 -194 0 -226 -21 -31 -64 -26 -82 8 -19 36 -13 217 8 230 26 16 58 11
74 -12z"/>
<path d="M5373 2625 c-53 -23 -67 -63 -66 -192 0 -121 9 -147 59 -179 33 -22
122 -22 156 0 29 19 53 68 44 91 -3 9 -18 15 -41 15 -27 0 -35 -4 -35 -18 0
-44 -58 -57 -84 -20 -12 16 -16 48 -16 116 0 110 9 132 51 132 25 0 33 -6 42
-30 10 -26 16 -30 50 -30 39 0 39 0 33 32 -16 78 -110 119 -193 83z"/>
<path d="M6271 2627 c-57 -20 -73 -53 -78 -159 -8 -151 23 -221 105 -230 82
-10 148 27 154 87 3 28 1 30 -34 33 -28 2 -38 -1 -38 -12 0 -22 -28 -46 -55
-46 -37 0 -48 34 -49 141 -1 108 8 129 56 129 24 0 32 -6 41 -30 9 -23 18 -30
37 -30 45 0 53 12 37 53 -9 19 -26 42 -39 51 -33 21 -97 28 -137 13z"/>
<path d="M7690 2623 c-54 -28 -70 -71 -70 -186 0 -152 29 -197 126 -197 35 0
56 5 65 16 11 14 13 14 21 0 5 -9 20 -16 33 -16 25 0 25 0 25 105 l0 105 -65
0 -65 0 0 -30 c0 -17 6 -31 13 -32 6 0 19 -2 27 -2 19 -2 15 -44 -7 -68 -21
-24 -48 -23 -73 2 -17 17 -20 33 -20 108 0 48 3 97 6 110 12 43 89 41 100 -4
5 -20 12 -24 40 -24 21 0 37 6 40 14 7 19 -21 73 -49 91 -38 25 -107 29 -147
8z"/>
<path d="M2130 2435 l0 -195 40 0 40 0 0 74 c0 116 25 114 75 -6 l28 -68 44 0
c23 0 43 2 43 5 0 3 -18 41 -39 84 l-40 78 23 13 c30 15 46 50 46 98 0 79 -54
112 -180 112 l-80 0 0 -195z m174 103 c7 -11 7 -26 0 -45 -8 -24 -16 -28 -52
-31 l-42 -3 0 49 c0 27 2 51 5 54 11 10 78 -8 89 -24z"/>
<path d="M2440 2435 l0 -195 40 0 40 0 0 195 0 195 -40 0 -40 0 0 -195z"/>
<path d="M2588 2468 c-2 -90 -2 -178 0 -195 3 -31 6 -33 43 -33 l39 0 0 69 0
69 56 4 c74 6 105 36 112 107 10 105 -33 141 -167 141 l-80 0 -3 -162z m164
80 c13 -21 9 -75 -7 -88 -8 -6 -29 -13 -47 -13 -32 -2 -33 -1 -36 47 -5 70 1
80 45 73 20 -4 40 -12 45 -19z"/>
<path d="M2935 2618 c-10 -27 -95 -356 -95 -367 0 -6 17 -11 39 -11 37 0 38 1
47 43 l9 42 51 3 51 3 9 -43 c9 -42 10 -43 52 -46 38 -3 43 -1 38 15 -9 29
-96 362 -96 368 0 12 -101 4 -105 -7z m64 -125 c26 -104 26 -103 -13 -103 -20
0 -36 2 -36 5 0 12 33 135 36 135 2 0 8 -17 13 -37z"/>
<path d="M3180 2435 l0 -195 40 0 39 0 3 78 c4 102 21 103 65 2 l32 -75 45 -3
45 -3 -37 81 -38 82 33 33 c25 25 33 42 33 68 0 94 -45 127 -172 127 l-88 0 0
-195z m172 100 c8 -19 8 -31 0 -50 -10 -21 -19 -25 -52 -25 l-40 0 0 50 0 50
40 0 c33 0 42 -4 52 -25z"/>
<path d="M3576 2613 c-8 -29 -96 -365 -96 -369 0 -2 18 -4 40 -4 35 0 40 3 46
28 14 63 13 62 63 62 l49 0 11 -45 c11 -44 12 -45 51 -45 22 0 40 3 40 6 0 5
-85 328 -96 367 -4 13 -16 17 -54 17 -38 0 -50 -4 -54 -17z m73 -151 c6 -29
11 -57 11 -62 0 -10 -53 -14 -61 -5 -3 2 2 34 10 70 8 36 18 62 22 57 4 -4 12
-31 18 -60z"/>
<path d="M3812 2598 l3 -33 65 -2 c36 -1 68 -2 72 -2 4 -1 -26 -59 -67 -129
-67 -118 -79 -146 -76 -179 1 -10 33 -13 126 -13 l125 0 0 35 0 35 -75 0 c-41
0 -75 2 -75 5 0 3 32 63 70 134 39 70 70 140 70 154 l0 27 -121 0 -120 0 3
-32z"/>
<path d="M4110 2435 l0 -195 40 0 40 0 0 195 0 195 -40 0 -40 0 0 -195z"/>
<path d="M4580 2435 l0 -195 40 0 40 0 -7 120 c-3 70 -2 120 3 120 5 0 30 -53
55 -118 l47 -117 46 -3 46 -3 0 195 0 196 -36 0 -35 0 3 -125 c2 -69 0 -125
-3 -125 -3 0 -28 56 -55 125 l-49 125 -47 0 -48 0 0 -195z"/>
<path d="M4920 2435 l0 -195 110 0 110 0 0 35 0 35 -70 0 -70 0 0 50 0 50 55
0 c54 0 55 0 55 30 0 30 0 30 -56 30 l-55 0 3 48 3 47 65 1 65 1 3 32 3 31
-110 0 -111 0 0 -195z"/>
<path d="M5627 2623 c-4 -3 -7 -91 -7 -195 l0 -188 116 0 115 0 -3 33 -3 32
-73 3 -73 3 3 47 3 47 58 3 c56 3 57 4 57 32 0 28 -1 29 -57 32 l-58 3 0 45 0
45 68 -1 67 -1 0 34 0 33 -103 0 c-57 0 -107 -3 -110 -7z"/>
<path d="M5900 2435 l0 -195 40 0 40 0 0 81 c0 70 2 80 17 77 9 -2 29 -34 48
-78 l32 -75 47 -3 47 -3 -41 81 -41 81 30 25 c37 31 48 87 27 137 -21 52 -58
67 -161 67 l-85 0 0 -195z m168 87 c4 -43 -12 -62 -54 -62 l-34 0 0 51 0 50
43 -3 c40 -3 42 -5 45 -36z"/>
<path d="M6510 2435 l0 -195 40 0 40 0 0 85 0 85 50 -1 50 -2 0 -84 0 -83 40
0 40 0 0 195 0 195 -40 0 -40 0 0 -80 0 -80 -50 0 -50 0 0 80 0 80 -40 0 -40
0 0 -195z"/>
<path d="M6840 2435 l0 -195 40 0 40 0 0 195 0 195 -40 0 -40 0 0 -195z"/>
<path d="M7100 2435 l0 -195 110 0 110 0 0 35 0 35 -70 0 -70 0 0 160 0 160
-40 0 -40 0 0 -195z"/>
<path d="M7360 2435 l0 -195 110 0 110 0 0 35 0 35 -70 0 -70 0 0 50 0 50 60
0 60 0 0 30 0 30 -61 0 -60 0 3 48 3 47 50 2 c28 0 58 2 68 2 12 1 17 9 17 31
l0 30 -110 0 -110 0 0 -195z"/>
<path d="M8020 2604 c-6 -14 -10 -29 -10 -34 0 -5 -15 -66 -34 -137 -55 -209
-55 -193 -7 -193 39 0 40 1 48 43 l9 42 50 3 51 3 9 -43 c9 -42 10 -43 52 -46
38 -3 43 -1 38 15 -4 15 -48 185 -87 336 -10 37 -10 37 -60 37 -44 0 -51 -3
-59 -26z m76 -135 c20 -76 19 -79 -22 -79 -25 0 -35 4 -31 13 2 7 10 39 17 71
6 31 14 55 17 53 2 -3 11 -29 19 -58z"/>
<path d="M8266 2302 c-2 -4 -8 -36 -12 -71 l-7 -63 28 4 c24 2 31 11 46 53 27
76 25 85 -15 85 -19 0 -37 -4 -40 -8z"/>
<path d="M4571 2037 c-62 -22 -76 -53 -79 -180 -2 -92 0 -118 15 -147 34 -67
130 -90 194 -47 51 34 63 68 62 177 0 144 -28 192 -118 204 -22 3 -55 0 -74
-7z m91 -74 c15 -13 18 -32 18 -112 0 -107 -13 -141 -55 -141 -42 0 -55 34
-55 142 0 74 4 100 16 112 20 21 53 20 76 -1z"/>
<path d="M5375 2045 c-5 -2 -23 -6 -38 -9 -33 -8 -67 -58 -67 -101 0 -50 34
-91 100 -125 34 -17 64 -38 67 -47 9 -23 -10 -48 -41 -51 -33 -4 -56 13 -56
41 0 17 -5 19 -36 14 -45 -8 -48 -10 -40 -40 16 -63 105 -102 179 -78 48 16
68 42 74 94 5 38 1 48 -23 76 -16 18 -51 44 -78 59 -59 32 -76 54 -60 80 17
26 67 22 79 -5 11 -27 62 -32 71 -8 10 24 -4 61 -28 77 -24 15 -85 29 -103 23z"/>
<path d="M5645 2043 c-72 -20 -99 -82 -93 -215 5 -112 23 -153 76 -175 45 -19
115 -12 150 14 40 30 54 84 50 194 -4 101 -16 134 -61 163 -25 17 -92 27 -122
19z m79 -78 c29 -30 33 -184 6 -235 -13 -25 -62 -27 -81 -3 -10 11 -14 46 -14
118 0 110 9 135 51 135 12 0 29 -7 38 -15z"/>
<path d="M6208 2034 c-57 -24 -78 -77 -78 -195 0 -69 5 -103 18 -129 23 -48
74 -73 134 -66 96 10 122 53 123 201 0 108 -14 151 -58 179 -35 24 -97 28
-139 10z m91 -63 c34 -22 35 -215 0 -246 -24 -23 -61 -15 -76 15 -19 37 -17
190 3 218 16 23 48 28 73 13z"/>
<path d="M3760 1845 l0 -195 115 0 115 0 0 30 0 30 -70 0 -70 0 0 55 0 55 55
0 c54 0 55 0 55 30 0 30 -1 30 -55 30 l-55 0 0 50 0 50 65 0 65 0 0 30 0 30
-110 0 -110 0 0 -195z"/>
<path d="M4160 1846 l0 -196 38 0 37 0 -3 122 c-2 68 0 119 5 115 4 -5 29 -59
54 -120 l46 -112 46 -3 47 -3 0 195 0 196 -35 0 -34 0 -3 -127 -3 -127 -51
124 -50 125 -47 3 -47 3 0 -195z"/>
<path d="M4820 1846 l0 -196 35 0 35 0 0 121 c0 66 3 118 8 115 4 -2 27 -56
52 -120 l45 -115 48 -1 47 0 0 195 0 195 -35 0 c-21 0 -35 -5 -36 -12 0 -7 0
-65 1 -128 1 -63 -1 -112 -4 -109 -4 3 -28 60 -55 125 l-48 119 -47 3 -46 3 0
-195z"/>
<path d="M5880 1845 l0 -195 111 0 110 0 -3 32 -3 32 -67 -3 -68 -2 0 165 0
166 -40 0 -40 0 0 -195z"/>
<path d="M3000 1383 c-56 -21 -109 -94 -110 -150 0 -21 4 -23 60 -23 53 0 60
2 60 20 0 28 35 60 65 60 60 0 88 -89 44 -144 -17 -21 -29 -26 -65 -26 l-44 0
0 -49 0 -48 51 -5 c69 -7 84 -25 84 -97 0 -71 -14 -91 -64 -91 -46 0 -60 10
-70 46 -7 27 -11 29 -64 32 l-57 3 0 -38 c0 -101 101 -166 230 -148 93 13 147
70 157 168 7 67 -22 139 -65 164 l-29 16 33 29 c82 72 61 222 -38 274 -27 14
-147 18 -178 7z"/>
<path d="M4334 1371 c-85 -52 -108 -127 -102 -340 3 -142 6 -161 28 -206 29
-58 74 -91 136 -101 90 -13 162 20 203 95 28 51 38 147 22 209 -32 115 -153
164 -245 99 l-29 -21 5 67 c7 86 27 117 73 117 34 0 75 -27 75 -50 0 -5 25
-10 56 -10 l57 0 -6 35 c-8 47 -39 89 -81 109 -48 23 -152 21 -192 -3z m141
-336 c22 -21 25 -33 25 -92 0 -88 -16 -113 -70 -113 -52 0 -70 26 -70 102 0
70 13 106 42 118 36 14 47 12 73 -15z"/>
<path d="M5196 1367 c-41 -23 -72 -72 -78 -122 -3 -30 -3 -30 55 -33 52 -3 57
-1 57 18 0 29 35 60 68 60 41 0 62 -28 62 -83 0 -61 -24 -87 -80 -87 l-40 0 0
-50 0 -50 40 0 c61 0 90 -33 90 -103 0 -64 -19 -87 -73 -87 -38 0 -67 27 -67
62 0 15 -9 18 -60 18 l-60 0 0 -30 c0 -46 35 -105 77 -131 52 -33 169 -34 228
-3 104 53 118 250 23 312 l-28 18 29 21 c53 40 67 173 24 232 -31 42 -79 61
-158 61 -54 0 -79 -5 -109 -23z"/>
<path d="M6110 1371 c-40 -21 -70 -66 -80 -122 l-7 -39 58 0 c52 0 59 2 59 20
0 50 79 79 113 42 21 -23 23 -101 3 -127 -9 -12 -31 -21 -62 -24 -46 -6 -49
-8 -48 -33 2 -66 2 -65 51 -71 61 -7 83 -32 83 -96 0 -64 -21 -91 -70 -91 -41
0 -70 26 -70 62 0 15 -9 18 -60 18 -67 0 -69 -3 -50 -72 21 -73 117 -127 207
-114 107 14 161 67 170 164 7 76 -9 124 -54 161 l-35 29 25 17 c36 23 61 93
54 151 -5 52 -29 89 -77 122 -44 29 -158 31 -210 3z"/>
<path d="M7016 1367 c-45 -25 -71 -64 -81 -119 l-7 -38 61 0 c52 0 61 3 61 18
0 10 7 28 16 40 19 28 74 30 97 4 29 -32 18 -121 -17 -144 -6 -4 -28 -8 -48
-8 l-38 0 0 -50 0 -50 40 0 c59 0 90 -33 90 -97 0 -66 -20 -93 -69 -93 -40 0
-66 20 -73 55 -3 17 -12 20 -61 23 l-57 3 0 -39 c0 -48 32 -98 80 -126 44 -27
169 -29 215 -4 109 58 131 231 39 307 -36 29 -36 29 -14 41 29 15 60 85 60
136 0 55 -37 122 -80 145 -51 28 -162 26 -214 -4z"/>
<path d="M3487 1303 c-83 -184 -167 -392 -167 -417 l0 -26 125 0 125 0 0 -65
0 -65 60 0 60 0 0 65 0 65 35 0 35 0 0 50 0 50 -35 0 -35 0 0 210 0 210 -84 0
-83 0 -36 -77z m83 -208 l0 -135 -60 0 c-33 0 -60 4 -60 10 0 9 113 260 118
260 1 0 2 -61 2 -135z"/>
<path d="M3799 1376 c-2 -2 -2 -27 -1 -55 l4 -51 129 0 130 0 -24 -32 c-71
-95 -121 -242 -161 -475 l-5 -33 63 0 63 0 13 78 c22 140 60 265 115 381 38
77 55 126 55 152 l0 39 -188 0 c-104 0 -191 -2 -193 -4z"/>
<path d="M4670 1325 l0 -55 131 0 131 0 -22 -35 c-37 -61 -77 -148 -99 -218
-16 -52 -61 -260 -61 -283 0 -2 28 -4 63 -4 l62 0 22 123 c27 150 50 222 114
356 28 60 49 118 49 137 l0 34 -195 0 -195 0 0 -55z"/>
<path d="M5606 1338 c-3 -24 -9 -107 -12 -185 l-7 -143 55 0 c49 0 56 3 66 25
22 48 93 41 112 -11 14 -36 12 -134 -3 -164 -11 -21 -20 -25 -56 -25 -46 0
-52 6 -71 58 -8 23 -15 27 -49 27 -74 0 -87 -20 -56 -93 30 -73 115 -114 211
-102 67 8 111 38 141 94 33 63 33 197 1 261 -42 83 -133 114 -204 71 l-30 -19
3 57 c6 85 0 81 118 81 l105 0 0 55 0 55 -159 0 -158 0 -7 -42z"/>
<path d="M6515 1368 c-4 -14 -25 -289 -25 -332 0 -25 2 -26 58 -26 53 0 60 3
70 25 22 48 93 41 112 -11 14 -36 12 -134 -3 -164 -9 -19 -22 -26 -50 -28 -45
-4 -63 9 -72 49 -6 28 -8 29 -67 29 l-61 0 6 -42 c14 -105 125 -167 248 -138
97 24 139 94 139 231 0 83 -20 138 -64 179 -23 21 -37 25 -91 25 -49 0 -68 -4
-86 -20 l-22 -20 6 25 c4 14 7 46 7 73 l0 47 110 0 110 0 0 55 0 55 -160 0
c-120 0 -162 -3 -165 -12z"/>
</g>
</svg>
